<?xml version="1.0" encoding="utf-8"?>
<!-- Generator: Adobe Illustrator 16.0.0, SVG Export Plug-In . SVG Version: 6.00 Build 0)  -->
<!DOCTYPE svg PUBLIC "-//W3C//DTD SVG 1.1//EN" "http://www.w3.org/Graphics/SVG/1.1/DTD/svg11.dtd">
<svg version="1.1" xmlns="http://www.w3.org/2000/svg" xmlns:xlink="http://www.w3.org/1999/xlink" x="0px" y="0px"
	 width="550.09px" height="457.18px" viewBox="0 0 550.09 457.18" enable-background="new 0 0 550.09 457.18" xml:space="preserve">
<g id="Logo">
	<g>
		<g>
			<path d="M390.362,0c-7.663,5.27-11.495,12.858-11.495,22.751v288.821c0,7.663,1.751,13.733,5.269,18.201
				c3.511,4.475,7.738,7.746,12.692,9.819c4.946,2.081,10.133,3.435,15.567,4.071c5.426,0.643,10.059,0.958,13.889,0.958v20.117
				c-3.194,0-8.067-0.239-14.607-0.719c-6.548-0.479-13.338-1.033-20.356-1.675c-7.027-0.638-13.815-1.199-20.356-1.677
				c-6.548-0.48-11.421-0.719-14.608-0.719c-3.196,0-7.985,0.239-14.369,0.719c-6.392,0.479-13.015,1.04-19.878,1.677
				c-6.869,0.643-13.493,1.197-19.877,1.675c-6.391,0.479-11.181,0.719-14.369,0.719v-20.117c4.146,0,9.019-0.315,14.609-0.958
				c5.582-0.636,10.776-1.99,15.566-4.071c4.79-2.074,8.86-5.345,12.213-9.819c3.354-4.468,5.029-10.538,5.029-18.201V61.548
				l-120.7,303.189h-22.033L73.283,61.07v250.502c0,7.663,1.751,13.733,5.269,18.201c3.51,4.475,7.739,7.746,12.692,9.819
				c4.947,2.081,10.134,3.435,15.567,4.071c5.426,0.643,10.058,0.958,13.89,0.958v20.117c-3.196,0-7.507-0.239-12.933-0.719
				c-5.433-0.479-11.181-1.033-17.242-1.675c-6.07-0.638-11.818-1.199-17.244-1.677c-5.433-0.48-9.744-0.719-12.932-0.719
				c-3.195,0-7.506,0.239-12.932,0.719c-5.434,0.479-11.182,1.04-17.243,1.677c-6.069,0.643-11.817,1.197-17.244,1.675
				C7.5,364.499,3.188,364.738,0,364.738v-20.117c4.146,0,9.019-0.315,14.609-0.958c5.583-0.636,10.776-1.99,15.566-4.071
				c4.79-2.074,8.861-5.345,12.213-9.819c3.353-4.468,5.03-10.538,5.03-18.201V22.751c0-9.894-3.757-17.481-11.256-22.751
				l59.154,6.467c3.188,3.196,6.383,7.268,9.579,12.213c3.188,4.955,6.226,10.142,9.1,15.567c2.874,5.433,5.426,10.942,7.664,16.523
				c2.23,5.591,4.146,10.464,5.748,14.609l88.609,230.864L307.5,54.842c3.832-10.214,7.739-19.233,11.734-27.062
				c3.989-7.82,8.062-14.765,12.215-20.835"/>
		</g>
		<g>
			<path d="M392.03,0c-7.664,5.27-11.496,12.858-11.496,22.751v293.611c0,13.411,2.71,26.186,8.143,38.317
				c5.426,12.132,12.611,22.751,21.554,31.852c8.936,9.101,19.16,16.284,30.654,21.553c11.495,5.27,23.469,7.903,35.923,7.903
				c11.174,0,20.433-3.039,27.781-9.101c7.342-6.068,11.81-16.764,13.41-32.091l1.438-1.436
				c11.173,2.874,19.076,7.342,23.708,13.411c4.626,6.062,6.945,12.61,6.945,19.639c0,8.62-2.478,14.607-7.423,17.961
				c-4.955,3.353-9.662,5.822-14.13,7.423c0,5.749-1.438,10.3-4.312,13.651c-2.873,3.353-6.308,5.904-10.298,7.664
				c-3.996,1.75-8.307,2.873-12.932,3.353c-4.633,0.479-8.704,0.719-12.214,0.719c-13.41,0-25.626-2.321-36.642-6.945
				c-11.017-4.632-21.313-10.299-30.893-17.003c-9.58-6.706-18.682-14.131-27.302-22.273c-8.622-8.143-17.326-15.565-26.104-22.271
				c-8.786-6.706-17.887-12.378-27.301-17.003c-9.423-4.632-19.721-6.945-30.895-6.945h-14.848v-20.117
				c4.146,0,8.778-0.239,13.89-0.719c5.104-0.478,9.737-1.991,13.891-4.549c4.146-2.554,7.663-6.625,10.537-12.215
				c2.874-5.582,4.312-13.485,4.312-23.708V22.751c0-9.894-3.758-3.29-11.257-8.56"/>
		</g>
	</g>
</g>
<g id="webpage" display="none">
	<text transform="matrix(1 0 0 1 74.2397 425.8828)" display="inline" font-family="'DidactGothic'" font-size="40">mattiaslyckne.se</text>
</g>
</svg>
